<svg id="Layer_1" xmlns="http://www.w3.org/2000/svg" viewBox="0 0 1591.4 912.7"><style>.st0{fill:#65C2E5;} .st1{fill:#080707;} .st2{fill:#3F88C3;} .st3{fill:#ABD03A;} .st4{fill:#4167B1;stroke:#575757;stroke-miterlimit:10;} .st5{fill:#4167B1;stroke:#464646;stroke-miterlimit:10;} .st6{fill:#4167B1;stroke:#6E6E6E;stroke-miterlimit:10;}</style><path class="st0" d="M1045.5 815.6c-5.3-.6-9.4-3.4-13.1-6.6-9.4-8.2-17.2-17.7-22.3-29.1-1.7-3.8-4.2-4.9-8.2-4.8-8.7.3-17.3.2-26 .1-11.1-.1-18.1-7.1-18.1-18.1V642.6c0-10.9 7.5-18.4 18.6-18.4 18-.1 36 0 54 0h164.5c14.7 0 21.3 6.6 21.3 21.3 0 36.3-.4 72.7.2 109 .2 12.4-8 21.2-21.3 21-50.5-.5-101-.2-151.5-.2-1.3 0-2.7-.1-4 0-6 .4-8.1 2.8-7.5 8.6 1.1 9.8 4.5 18.7 10.7 26.5 1.2 1.3 2.9 2.6 2.7 5.2z"/><path class="st1" d="M317.2 223v184.9c0 7.9 1 6.7-7 6.8-7 .1-14-.3-21 .1-4.3.2-5.6-.9-5.6-5.4.2-38.7.1-77.3.1-116 0-40 .1-80-.1-120 0-4.1 1-5.5 5.2-5.3 9.7.3 19.3.2 29 .1 2.3 0 4 .5 5.4 2.6 37.4 53 75 106 112.2 159.1 6.2 8.8 11.2 18.5 16.8 27.7.5.9.6 2.3 2.5 2.7v-4.8c0-60.7 0-121.3-.1-182 0-4 .7-5.5 5.1-5.3 7.8.4 15.7.3 23.5 0 3.7-.1 4.7.9 4.7 4.7-.2 31.8-.1 63.7-.1 95.5 0 47.2 0 94.3.1 141.5 0 3.7-.7 5.2-4.8 5.1-8.6-.4-17.3-.3-26 0-3.4.1-5.4-1-7.4-3.8-34.6-48.5-69.2-97-104.1-145.3-9.9-14-19-28.4-28.4-42.9zm209.9 68.4c0-39.2.1-78.3-.1-117.5 0-4.3.7-5.9 5.6-5.9 21 .3 42-.2 63 .2 27.5.5 54.7 3.5 80 15.6 34.1 16.3 53.1 43.4 58.5 80.5 4 27.6 1.4 54.4-11.3 79.6-16.9 33.5-44.8 53.4-80.1 63.9-15.9 4.7-32.2 6.7-48.7 6.8-20.7.2-41.3-.1-62 .1-4 0-5-1-4.9-5V291.4zm37.9.2v86.5c0 2.1-1.1 4.7 3 4.6 17.1-.3 34.3.8 51.3-2.8 20.8-4.3 39.8-12.5 54-28.7 25.3-29 28.9-62.8 17.6-98.1-9.6-29.9-33.6-43.4-62.9-49.2-19.3-3.8-38.8-2.8-58.2-3.1-3.8-.1-5 .8-4.9 4.8.2 28.7.1 57.3.1 86z"/><path class="st2" d="M405 574.2c2.9 1.1 5.9 2 8.8 3.2 27.9 11.2 41.6 35.5 36.7 65.1-5.4 32.6-24.7 52-59.4 59.5-20.1 4.4-40.4 3.4-60.7 2.5-10.1-.5-20.2-1.7-30.3-2.4-3.3-.2-4.1-1.4-4.1-4.6.1-78.2.1-156.3 0-234.5 0-2.9.6-4 3.8-4.2 24.1-1.2 48.2-2.8 72.4-.8 10.8.9 21.3 3.5 31.4 7.6 41.2 17.1 41.7 64.2 23.4 88.9-5 6.8-11.1 12.3-18.4 16.7-1.3.8-2.9 1-3.6 3zM333.9 633c0 9.8-.1 19.7 0 29.5 0 3.6-1.5 8.1.7 10.6 2.1 2.4 6.6 1.1 10 1.3 13.1.9 26.3 1.4 39.1-2.4 19.3-5.7 30-21.5 29.2-43-.7-18.2-11.2-29.7-31.2-34.1-15-3.4-30.2-1.6-45.3-2-3.3-.1-2.6 2.3-2.6 4.2 0 11.9.1 23.9.1 35.9zm0-107.9v34c0 2.2 0 3.9 3 3.8 10.1-.1 20.2.4 30.2-1.9 25.1-5.8 35.7-23.8 31.7-47.2-2.7-15.9-15-23.6-33.2-26-9.4-1.3-18.8-.2-28.2 0-2.9.1-3.6 1.2-3.6 3.9.1 11.1.1 22.2.1 33.4zm-181.1 48.7c5.9 2.2 11.2 3.9 16.2 6.5 22.3 11.5 33.4 33.9 30.6 58.9-4.3 38.1-29.2 57.3-65.1 63.6-23.7 4.2-47.5 2-71.2.5-4.8-.3-9.6-1.2-14.4-1.4-3.2-.1-4.2-1.3-4.2-4.6.2-15.8.1-31.7.1-47.5 0-61.8 0-123.6-.1-185.5 0-4.1.6-5.6 5.3-5.9 23.9-1.1 47.9-2.9 71.8-.5 18.5 1.9 36 6.9 49.7 20.6 19.7 19.8 20.6 55.8 2 78.3-5.6 7.1-12.5 12.3-20.7 17zm-70.7 59.6v36.4c0 1.9-.5 4 2.7 4.2 13.3.8 26.6 1.8 39.8-.1 26.4-3.9 41.8-26.2 36-52.2-3.5-15.9-14.9-23.2-29.6-26.7-15.3-3.6-30.8-1.7-46.2-2.2-3.3-.1-2.7 2.2-2.7 4.1v36.5zm0-108.5v28c0 9.9 0 9.9 9.9 10 12.1.1 24-.5 35.2-5.7 15.4-7 22.7-21.6 20.8-41.1-1.3-13.6-11.2-23.6-27.3-27.3-11.5-2.6-23.1-1.9-34.8-1.1-3.1.2-3.9 1.3-3.8 4.2.1 11 0 22 0 33zM609 580.5c0-39 .1-78-.1-117 0-4.1.6-5.7 5.3-5.6 37.5.2 75 .2 112.5 0 4.6 0 5.6 1.3 5.4 5.6-.4 7.1-.3 14.3 0 21.5.2 4.1-.9 5.4-5.1 5.3-25-.2-50 0-75-.2-5-.1-6 1.5-5.9 6.1.3 21.2.2 42.3 0 63.5 0 4 1.1 5.1 5 5.1 25.3-.2 50.7 0 76-.2 4.1 0 5.5 1.1 5.3 5.3-.3 7.2-.3 14.3 0 21.5.2 4.2-1.4 4.9-5.2 4.9-25.3-.1-50.7 0-76-.2-4.2 0-5.3 1.1-5.3 5.3.2 22 .2 44 0 66 0 4.1 1.3 4.9 5.1 4.9 25.3-.2 50.7 0 76-.2 4.2 0 5.5 1.1 5.3 5.3-.3 7.7-.2 15.3 0 23 .1 2.8-.8 3.7-3.7 3.7-38.7-.1-77.3-.1-116 0-4.5 0-3.7-2.5-3.7-5.1.1-39.5.1-79 .1-118.5z"/><path class="st1" d="M44 291.5c0-39.5.1-79-.1-118.5 0-4 1.1-4.9 5-4.9 37.7.1 75.3.2 113 0 4.2 0 5.3 1.1 5.2 5.2-.3 7.8-.3 15.7 0 23.5.1 3.4-1 4.1-4.2 4.1-25.7-.1-51.3 0-77-.2-3.8 0-5 .8-4.9 4.8.2 21.3.2 42.7 0 64 0 3.9 1.1 4.6 4.7 4.5 25.5-.2 51 .1 76.5-.2 4.7-.1 5.5 1.4 5.3 5.6-.3 7.5-.3 15 0 22.5.1 3.3-.9 4.1-4.1 4.1-25.8-.1-51.7 0-77.5-.2-3.9 0-4.9 1-4.9 4.9.2 33 0 66 .2 99 0 4.3-1.2 5.2-5.2 5.1-9-.3-18-.3-27 0-3.8.1-5-.8-5-4.8.1-39.5 0-79 0-118.5z"/><path class="st3" d="M1238.2 551.5c-8.1-1.7-13.7-7-16.6-13.4-3.7-8.3-9.2-10.2-17.2-9.1-2.1.3-4.3.1-6.5 0-6.7-.3-10.9-4.4-10.9-11.1-.1-22-.1-44 0-66 0-6.7 4.2-10.9 11-10.9 43-.1 85.9-.1 128.9 0 6.7 0 10.8 4.3 10.8 11.1.1 21.8.1 43.6 0 65.5 0 7.4-4.3 11.4-12.1 11.4h-87.4c-7.8 0-8.8 1.3-6.9 8.9.6 2.6 1.7 5 2.9 7.4 1.1 2.1 2.7 4.1 4 6.2z"/><path class="st2" d="M471 580.9c0-39.1.1-78.3-.1-117.4 0-4.7 1.4-5.8 5.8-5.6 9 .3 18 .3 27 0 4.1-.1 5.3 1 5.3 5.2-.2 24.8-.1 49.6-.1 74.5 0 43.1.1 86.3-.1 129.4 0 4.1 1 5.3 5.2 5.3 23.5-.2 47 0 70.5-.2 4.2 0 5.5 1.2 5.3 5.3-.3 7.6-.2 15.3 0 23 .1 2.8-.8 3.7-3.7 3.7-37.1-.1-74.3-.1-111.4 0-4.1 0-3.6-2.2-3.6-4.7-.1-39.5-.1-79-.1-118.5z"/><path class="st1" d="M204.3 291.2c0-39.1.1-78.3-.1-117.4 0-4.7 1.4-5.8 5.8-5.7 9 .3 18 .4 27 0 4.4-.2 5.5 1 5.5 5.4-.2 69.5-.1 138.9-.1 208.4 0 9.7-.1 19.3.1 29 .1 3.1-.8 4-3.9 3.9-9.5-.2-19-.3-28.5 0-4.5.2-5.9-.9-5.8-5.7V291.2z"/><path class="st3" d="M1392 292.6c-2.5.7-4-.8-5.6-1.9-3.2-2.5-6.8-5-8.1-8.7-3.2-8.7-9.5-9.3-17.3-8.9-10 .6-12.3-2.2-12.3-12.2v-51c0-7.8 3.1-10.9 10.9-10.9H1465c7.7 0 10.9 3.2 10.9 11v52.5c0 7.8-3 10.7-11 10.7h-72.4c-7.2 0-8.1 1.3-6.4 8.3 1.1 4.2 3.6 7.5 5.9 11.1z"/><path class="st2" d="M219.7 581V464.5c0-7.5-.8-6.5 6.8-6.5 8.8-.1 17.7.1 26.5-.1 3.1-.1 4.3.7 4.3 4.1-.1 79.3-.1 158.6 0 237.9 0 3.4-1.2 4.2-4.3 4.1-9.5-.2-19-.3-28.5 0-4.2.1-4.9-1.4-4.9-5.1.1-39.3.1-78.6.1-117.9z"/><path class="st3" d="M1231.4 353.1c7 1.7 11.2 6.8 14.2 12.7 1.6 3.2 3.5 4.4 6.9 4.1 3.1-.3 6.3-.2 9.5 0 4.5.3 7.6 3.1 7.6 7.7.1 16.8.2 33.7 0 50.5-.1 5.2-3.5 7.9-9.5 7.9h-93.5c-7.3 0-10-2.7-10-10 0-15.5-.1-31 0-46.5 0-6.9 2.7-9.6 9.7-9.6h64.5c6.3 0 7.1-1.1 5.4-7.1-.5-1.7-1.2-3.5-2.1-5.1-.6-1.6-1.7-3.1-2.7-4.6z"/><path class="st0" d="M1459.6 591.6c-6.5-1.7-10.3-6.2-13-11.6-1.5-3.1-3.3-4.3-6.9-4.2-17.1.1-17.5-.4-17.5-17.7v-36.5c0-8.7 2.7-11.5 11.3-11.5h90.5c7.8 0 10.2 2.4 10.2 10v45c0 8.2-2.4 10.7-10.6 10.7h-62c-7.2 0-8.1 1.3-5.6 8.3.9 2.6 2.4 5 3.6 7.5zm-275.7-458.5c-6.6-1.3-10-6.4-12.7-11.7-2.2-4.2-4.8-5.4-9.4-5.4-14.9.3-14.9.1-14.9-15V60c0-6.3 2.8-9.1 9.2-9.1h93c6.6 0 9.8 3.2 9.8 9.8.1 15.2.1 30.3 0 45.5 0 7.3-2.7 9.8-10 9.8h-60.5c-1.8 0-3.6.2-5.5.3-3.6.3-4.3 2.4-3.7 5.6.7 4 3.3 7.2 4.8 10.9l-.1.3zm-18.7 401.5c7 1.8 10.8 6.8 13.7 12.4 1.7 3.2 3.6 4.3 7 4 2.6-.2 5.3-.1 8 0 5.7.1 9 3.2 9 9 .1 16 .1 32 0 48 0 5.1-3 8.1-8.1 8.2-32 .1-64 .1-96 0-5.4 0-7.9-2.6-7.9-8.1-.1-16.2-.1-32.3 0-48.5 0-5.9 2.9-8.5 9.2-8.5h62.5c7.9 0 9.4-2.2 6.3-9.6-1-2.4-2.5-4.6-3.7-6.9zM976 561.9c7.4-6.3 14.8-12.7 22.1-19h72.9c7.4 0 9.8 2.4 9.8 9.9v40c0 8.5-2.6 11.1-10.9 11.1h-57.4c-5.8 0-6.7 1.2-5.2 6.8.4 1.6 1.1 3.1 1.9 4.6.7 1.3 1.7 2.4 2.1 4.1-5.1-1.3-8.9-4.9-10.9-9.1-2.7-5.9-6.6-6.7-12.2-6.5-9.8.3-12.1-2.2-12.1-11.9 0-10 0-20-.1-30zm383.4 200.3c-5.9-2-8.8-5.8-11-9.9-1.7-3.2-3.7-4.4-7.3-4.4-12.7.2-13.1-.3-13.1-13.1v-33.5c0-5.9 2.1-8.2 8.1-8.2 25.8-.1 51.6-.1 77.4 0 5.4 0 8.1 2.4 8.2 7.9.2 13 .2 26 0 39-.1 5.7-2.8 8-8.6 8-17.2.1-34.3 0-51.5 0-7.1 0-8.2 1.7-5.4 8.3.8 1.7 1.8 3.4 3.2 5.9z"/><path class="st3" d="M841.7 668.4c3-12 6-23.9 10.4-35.5 22.3 0 44.6.1 66.9.1 7.7 0 9.2 1.4 9.2 8.9v33.5c0 6.3-1.7 8-8.1 8h-46c-8 0-9.1 1.8-5.4 9 .7 1.3 1.4 2.5 2.3 4-4.6-1.4-7.6-3.7-10.4-9.3-1.6-3-3.5-4.1-6.7-3.7-1.6.2-3.3.1-5 0-5-.2-6.9-2.1-7.1-7 0-2.7 0-5.4-.1-8z"/><path class="st0" d="M1130.5 203.2c-5.3-1.6-7.9-4.7-9.6-8.2-1.8-3.6-4.2-4.7-7.9-4.2-1.6.2-3.4.2-5-.1-3-.6-5.1-2.3-5.1-5.8v-36c0-3.8 2.4-5.8 6.1-5.8 22.8-.1 45.6-.1 68.5 0 4.5 0 6.5 2.8 6.5 7.2v33c0 5.5-2 7.5-7.5 7.6-14.5.1-29 0-43.5 0-7.5 0-8.4 1.5-4.8 8.3.4 1 1 1.9 2.3 4zm125.4 616.9c-4.5-1.3-7.4-4.3-9.2-8-1.3-2.7-3.1-3.6-5.9-3.3-1.8.2-3.7.1-5.5 0-3.9-.3-6.2-2.4-6.2-6.4-.1-11.7-.1-23.3 0-35 0-4 2.3-6.3 6.2-6.3 22.8-.1 45.6-.1 68.4 0 4.4 0 6.5 2.5 6.4 7.1-.2 11 0 22-.1 33 0 5.8-1.9 7.6-7.9 7.6h-43c-7 0-8 1.5-5 7.8.7 1.2 1.3 2.4 1.8 3.5zm-161.6 25.1c-4.7-1.2-7.1-4.1-8.6-7.2-2.1-4.3-5.1-5.2-9.6-5.1-7.8.3-9.1-1.1-9.1-8.8v-30.5c0-6.2 1.5-7.8 7.5-7.8h66.5c5.4 0 7 1.4 7 6.7.1 11.2.1 22.3 0 33.5 0 5-1.9 6.9-7 6.9-14.8.1-29.7 0-44.5 0-6.7 0-7.6 1.4-4.7 7.7.7 1.3 1.4 2.5 2.5 4.6z"/><path class="st3" d="M1066.6 447.1c7.6-16.2 14.3-32.8 21.2-49.2 18 .1 35.9.1 53.9.2 7.4 0 9.1 1.7 9.1 9.1v33.4c0 5.9-1.9 7.8-7.8 7.8h-46.4c-7.7 0-8.9 2.1-5.2 9.2.6 1.1 1.9 2 1.7 3.5-5.2-.7-7.6-4.9-9.7-8.8-1.7-3.2-3.7-4-7-3.9-3.4-.1-6.8.7-9.8-1.3zm338.5-72.1c-1.8-5.6-5.3-8-11.5-7.4-5.8.6-7.5-1.5-7.6-7.2 0-10.3-.1-20.7 0-31 0-5.4 1.8-7.1 7.3-7.1h63c5.8 0 7.5 1.8 7.5 7.4v30.5c0 5.7-1.8 7.5-7.5 7.5-13.8.1-27.7 0-41.5 0-6.8 0-7.8 1.7-4.6 8 .5 1 1.1 2 2 3.4-3.7.1-4.8-3.2-7.1-4.1zm-116.7-104.5c-4.8-1.5-7.2-4.5-8.9-7.8-1.6-3.1-3.6-4.1-7-4.1-9.6.2-10.5-.8-10.5-10.5v-27c0-6.4 1.7-8.1 7.9-8.1h61.9c6.3 0 8 1.7 8 7.9v30c0 5.9-1.8 7.7-7.8 7.7-13.8.1-27.6 0-41.4 0-6.4 0-7.3 1.5-4.5 7.3.5 1.4 1.2 2.6 2.3 4.6zm104.7 271.2c.8-1.6.9-2.1 1.2-2.5 1.6-2.6 3.8-5.5 2.3-8.2-1.4-2.6-4.8-1.2-7.4-1.2-12.5-.1-25 0-37.5-.1-5.8 0-7.4-1.6-7.5-7.4 0-9.7-.1-19.3 0-29 0-5.4 1.8-7.1 7.3-7.1h60c5.4 0 7 1.8 7.1 7.3.1 9.5 0 19 0 28.5 0 6.2-1.5 8-7.6 7.6-4.6-.3-7.8.7-9.9 5.2-1.3 2.9-3.9 4.9-8 6.9zm-106.6 94.4c5.9-12.6 4.5-11.4-6.8-11.3-11.7.1-23.3.1-35 0-6 0-7.6-1.7-7.7-7.7v-28c0-6.1 1.6-7.9 7.6-7.9 19.8 0 39.6-.1 59.4 0 5.6 0 7.2 1.6 7.3 7.1 0 10-.2 20-.1 30 0 4.8-2.3 7-6.7 6.4-5.2-.6-8.7.9-11.1 5.8-1.1 2.6-3.5 4.7-6.9 5.6zm194.6-371.3c3.4 1.2 5.5 3.8 7 6.7 1.6 3.3 3.8 4.4 7.4 4.3 8.8-.3 9.4.6 9.4 9.2v27c0 5.9-1.3 7.2-6.9 7.2h-61c-5.5 0-6.9-1.5-7-7.2v-29c0-5.8 1.5-7.3 7.5-7.3h39.5c6.6 0 7.6-1.5 4.7-7.6-.4-.9-1-1.8-1.4-2.6.3-.2.6-.5.8-.7zm-206.7 426.8c4.1-10.8 4.1-10.8-7.9-10.8h-32.9c-6.2 0-7.7-1.5-7.7-7.6 0-9.5.1-19 0-28.5-.1-4.6 1.9-6.7 6.6-6.7 19.8.1 39.6.1 59.4 0 4.6 0 6.8 2 6.8 6.5V674c0 4.6-2.3 7.1-6.7 6.7-5.1-.5-8.8.7-11.2 5.8-1.1 2.3-3.4 4.3-6.4 5.1z"/><path class="st0" d="M1313.3 156.1c-3.3-2-6-4.3-7.5-7.5-1.5-3.1-3.6-3.7-6.7-3.7-8.9.1-9.3-.3-9.3-9.3v-26.5c0-5.1 1.8-7 6.8-7 19.5-.1 39 0 58.5 0 5.4 0 7.5 1.7 7.6 7 .2 9.8.2 19.7 0 29.5-.1 4.4-2.5 6.5-7.1 6.4-12.8-.2-25.7-.1-38.5 0-6.9 0-7.9 1.7-4.7 7.9.5.7 1.6 1.3.9 3.2z"/><path class="st3" d="M1157.2 478.8c3.2 1.1 5.3 3.6 6.7 6.4 1.5 3.2 3.6 4.1 7 4 8.6-.2 9.3.7 9.3 9.4v26.5c0 5.3-1.6 6.8-6.9 6.8h-58.9c-5.2 0-6.9-1.7-6.9-6.9-.1-9.7-.1-19.3 0-29 0-5.1 1.8-6.8 7-6.9 13-.1 26 0 38.9 0 6.2 0 7-1.2 4.4-6.9-.4-.9-.9-1.8-1.4-2.6.3-.3.5-.6.8-.8z"/><path class="st0" d="M1492.1 448.8c3.2 1.1 5.2 3.7 6.6 6.4 1.6 3.1 3.8 4 7.2 3.9 8.3-.2 9.1.8 9.1 9 0 9-.1 18 0 27 0 4.5-2 6.8-6.6 6.8H1449c-4.9 0-6.9-2-6.9-7.1-.1-9.5-.1-19 0-28.5 0-5.3 2-7.2 7.2-7.2 12.8-.1 25.6 0 38.4 0 7 0 7.5-.7 4.8-7-.4-.9-.6-1.9-.9-2.8.3-.2.4-.3.5-.5zM1114.6 98c1-1.7 1.6-2.5 2-3.4 3-5.7 1.9-7.7-4.5-7.7h-37.9c-6.1 0-7.3-1.2-7.3-7.3 0-9.7.1-19.3-.1-29-.1-4.8 2.1-6.6 6.6-6.6h59.4c4.2 0 6.5 1.7 6.4 6.3-.1 10.1-.1 20.3 0 30.4.1 4.3-2.1 6.4-6 6-5.3-.5-9.1.8-11.6 5.9-1.1 2.3-3.1 4.5-7 5.4zm363.6 556.2c5.7-13.5 2.7-11.2-7.3-11.2h-34c-5.8 0-7.1-1.3-7.1-7 0-9.7.1-19.3-.1-29-.1-4.7 1.8-6.8 6.4-6.8h59.5c4.2 0 6.5 1.9 6.5 6.4 0 10.2-.1 20.3 0 30.5 0 3.7-1.7 6.2-5.2 5.8-6.2-.7-10.4 1.3-13.2 6.9-.9 1.7-2.8 3.3-5.5 4.4z"/><path class="st3" d="M1175 310.7c-5.1 11-5 11.1 6.5 11.1h35c5.5 0 7.1 1.6 7.1 7.2.1 9.3.1 18.7 0 28 0 5.7-1.6 7.2-7.1 7.2h-59c-5.5 0-6.7-1.3-6.8-6.8-.1-9.7.1-19.3 0-29-.1-4.7 2.1-7 6.7-6.5 4.9.6 8.6-.5 10.7-5.5 1.1-2.5 3.4-4.5 6.9-5.7zm123.9 95.8c-4.7-2.3-7.2-4.8-8.7-7.9-1.5-3.1-3.6-3.7-6.7-3.7-8.5.2-9.2-.6-9.2-9 0-8.7.1-17.3 0-26-.1-4.6 2-6.7 6.6-6.7h58c5.2 0 6.8 1.7 6.9 6.9.1 9.3.1 18.7 0 28 0 5.2-1.6 6.8-7 6.8h-38c-6.3 0-7.1 1.3-4.5 6.9.5 1.3 1.2 2.4 2.6 4.7zm213.1-34.2c4.1-8.7 5.8-10.6-5.7-10.2-11 .3-22 0-33 .1-4.6.1-6.7-1.7-6.7-6.5.2-9 .2-18 0-27-.1-4.8 2.2-6.5 6.7-6.5 18.3.1 36.6.1 55 0 4.3 0 6.6 1.7 6.6 6.2v27.5c0 4-1.7 6.6-6 6.1-5.1-.6-8.5.8-10.8 5.6-.9 2.1-2.8 4.1-6.1 4.7zm-299.5-103.4c-2.7-1.1-4.8-3-5.9-5.5-1.5-3.3-3.9-3.9-7.2-3.8-6 .2-7.1-1-7.1-6.8 0-7.8.1-15.7 0-23.5-.1-4.2 1.7-6.1 6-6.1 16.8.1 33.7.1 50.5 0 4.3 0 5.9 2.1 5.9 6.2-.1 8-.1 16 0 24 .1 4.4-1.9 6.4-6.3 6.3-10.5-.1-21 0-31.5 0-7.2 0-7.7.9-4.6 7.3.2.4.9.9.2 1.9zm78.3 307.9c.3-.8.7-1.5.9-2.3 1.8-4.9 1.4-5.5-3.7-5.5-10.8 0-21.6-.1-32.4.1-4.7.1-6.7-1.8-6.6-6.5.1-7.6.1-15.3 0-22.9-.1-4.7 1.9-6.5 6.6-6.5 16.1.1 32.3.1 48.4 0 4.4 0 6.5 1.5 6.4 6.1-.1 8.1-.1 16.3 0 24.4 0 3.4-1.4 5.7-5 5.3-4.6-.6-7.9.7-9.9 5.2-.7 1.6-2.2 2.9-4 3.6-.2-.4-.4-.7-.7-1zm68.5 6.2c3.6-9.3 3.6-9.3-6.3-9.3h-28c-5.6 0-6.9-1.2-6.9-6.6 0-7.7.1-15.3 0-23-.1-4.4 1.8-6.3 6.3-6.3 16.3.1 32.6.1 48.9 0 4.5 0 6.4 1.8 6.3 6.2-.1 7.8-.1 15.6 0 23.5 0 4.1-1.5 6.5-5.9 6.1-4-.4-6.9.5-8.8 4.5-.9 2.3-2.9 4-5.6 4.9zm74.9-132.2c3.4-8.9 3.4-8.9-6.3-8.9-9.5 0-19-.1-28.5 0-4.7.1-6.6-1.9-6.5-6.6.2-7.7.2-15.3 0-23-.1-4.4 1.5-6.4 6.1-6.4 16.5.1 33 .1 49.4 0 4 0 5.8 1.6 5.8 5.7-.1 8.3 0 16.6 0 25 0 3.5-1.8 5.6-5.2 5.2-4.8-.6-7.7 1.1-10 5.2-.8 1.7-2.3 3.5-4.8 3.8zm-80.3 205.3c3.7-9.1 3.7-9.1-5.9-9.1-9.6 0-19.3-.1-28.9 0-4.4.1-6.4-1.6-6.3-6.1.2-8 .1-16 .1-24 0-4 1.6-5.8 5.7-5.8 16.6.1 33.3.1 49.9 0 4 0 5.7 1.8 5.6 5.8-.1 8.2-.1 16.3 0 24.5 0 3.4-1.2 5.8-4.8 5.5-4.8-.4-8.2.7-10.4 5.3-.7 1.7-2.4 3.1-5 3.9zM895.8 600c12.1-3.3 24.4-6.2 35.8-11.7 8.2-4 16.3-8.2 24.4-12.3 9 .7 9.1.7 9.1 9.7 0 8.2-.1 16.3 0 24.5.1 4.7-2.1 6.6-6.6 6.6-12.1-.1-24.3 0-36.4 0-6.7 0-7.5 1.3-4.3 7.5.4.7.8 1.4 1.6 2.7-4.4-.9-6.5-3.9-8.1-6.9-1.4-2.6-3-3.4-5.9-3.4-9 .1-9.5-.5-9.5-9.7 0-2.4 0-4.7-.1-7z"/><path class="st3" d="M1340.3 443.4c3.9-9.2 3.9-9.2-5.7-9.2-9.1 0-18.3-.1-27.4.1-4.5.1-6.3-1.7-6.2-6.2.2-7.5.1-15 0-22.4-.1-4 1.6-5.8 5.6-5.7 16 .1 31.9.1 47.9 0 3.8 0 5.5 1.7 5.4 5.4-.1 8 0 16 0 23.9 0 3.3-1.6 5.2-4.9 4.9-4.4-.4-7.6.7-9.6 5-.8 1.8-2.6 3.2-5.1 4.2z"/><path class="st0" d="M1003.9 536.8c16.3-17.2 30.5-36.1 43.7-55.8 13.1 0 13.4.3 13.4 13.4v34c0 5.6-2.6 8.4-8.1 8.4-16.3.1-32.6 0-49 0zM1201 316c-.6-.1-1.5 0-1.8-.4-3.4-4-6.7-7.8-12.9-7.2-2.3.2-3.1-2.6-3.1-4.9v-21.4c0-3.5 1.7-5.1 5.2-5.1 14.8.1 29.6.1 44.4 0 3.9 0 5.3 1.9 5.2 5.6-.1 6.8-.1 13.6 0 20.4.1 4.3-2 6-6.1 6-8.6-.1-17.3 0-25.9 0-7.9-.2-7.9-.2-5 7zm197.1 371.9c.5-1 1-2 1.4-3.1 1.1-2.8.1-4-2.9-3.9-8.8.1-17.6-.1-26.5.1-4.5.1-6.4-1.6-6.2-6.1.2-6 .2-12 0-18-.1-4.3 1.8-5.9 6-5.9 13 .1 26 .1 38.9 0 4.1 0 6.2 1.4 6.1 5.8-.2 6.2-.2 12.3 0 18.5.1 4-1.5 6.1-5.6 5.7-3-.3-5 .7-6.4 3.5-.9 1.7-2.5 3-3.8 4.5-.2-.4-.6-.8-1-1.1z"/><path class="st3" d="M1095.1 375.4c.9-5.5 1.9-11 4.2-16.2 12.8.1 25.6.3 38.4.1 4.5 0 6.4 1.5 6.2 6.1-.2 5.8-.1 11.6 0 17.5 0 2.4-.8 4.9-3.3 4.7-4.9-.5-7.6 2-10 5.6-.4.6-1.2 1-2 1.7-1-1.5.3-2.3.6-3.2 1.1-2.9.1-3.9-2.9-3.8-8 .1-16 .1-23.9 0-6.1 0-6.8-.7-6.9-6.9-.2-2-.3-3.8-.4-5.6zM1331 170c1.2-.2 2 .6 2.5 1.3 2.3 3.6 4.9 6.3 9.9 5.6 2.1-.3 2.9 1.8 2.9 3.8v19.9c0 2.9-1.4 4.2-4.3 4.2h-39.4c-3.1 0-4.5-1.6-4.5-4.6v-18.9c0-3.4 1.8-4.6 5-4.6 7.5.1 15 0 22.4 0 7.3 0 7.3 0 5.5-6.7zm-181.2 144.9c.8-1.7 1-2.2 1.3-2.8 1.9-3.5 1.2-5.1-3.2-5-8.2.2-16.3-.1-24.5.1-4.1.1-5.7-1.4-5.6-5.6.2-5.8.1-11.7 0-17.5-.1-3.6 1.4-5.2 5-5.2 12.8.1 25.6.1 38.5 0 3.3 0 4.9 1.5 4.8 4.8-.1 6.3 0 12.7 0 19 0 2-.6 4.4-2.6 4.1-5.8-1-8.1 3.1-11.1 6.4-.3.4-.8.6-2.6 1.7z"/><path class="st0" d="M1042.1 96.4c2.3-7.4 2.3-7.4-4.6-7.4-7.6 0-15.3-.1-22.9 0-3.4.1-4.8-1.3-4.8-4.7.1-6.3.1-12.6 0-19 0-3.2 1.4-4.5 4.5-4.5 12.8.1 25.6.1 38.4 0 3.6 0 5.2 1.6 5.1 5.1-.1 6 0 12 0 18 0 2.4-.7 5.1-3.2 4.7-5.3-.7-7.7 2.5-10.3 6.1-.2.6-.9.8-2.2 1.7z"/><path class="st3" d="M1226.2 159.8c1 .9 2.3 1.6 2.8 2.7 1.3 2.8 3.3 3.9 6.3 3.5 3.6-.5 5.1 1.4 5 5-.1 6.1-.1 12.3 0 18.4.1 3.4-1.4 4.8-4.8 4.7-12.8-.1-25.6-.1-38.4 0-3.6 0-5.1-1.5-5-5.1.1-6 .1-12 0-17.9-.1-3.9 1.8-5.2 5.5-5.2 8 .1 16-.2 23.9.1 4.9.2 5.5-1.6 3.7-5.5.4-.2.7-.5 1-.7z"/><path class="st0" d="M1192.5 816.9c.7-6 .7-6-5.3-6-7 0-14-.1-21 0-3.8.1-5.5-1.4-5.3-5.3.2-5.5.1-11 0-16.5-.1-3.6 1.5-5.2 5.1-5.1 11.8.1 23.6.1 35.4 0 3.6 0 5.3 1.7 5.3 5 .1 5.7.1 11.3 0 17 0 2.2-.8 5-3.4 4.7-4.6-.5-7 1.8-9.1 5.2-.2.5-1 .6-1.7 1zm265.4-125.6c1.5-6.4 1.5-6.4-5.1-6.4-7 0-14-.1-21 0-3.6.1-5.2-1.2-5.1-4.9.2-5.7.2-11.3 0-17-.1-3.4 1.2-5 4.6-5h35.9c3.3 0 4.9 1.4 4.8 4.8-.1 5.8-.1 11.6 0 17.5 0 2.1-.4 4.7-2.9 4.3-4.7-.6-7 1.8-9.1 5.2-.2.7-1.2 1-2.1 1.5z"/><path class="st3" d="M908.6 721c1.2-6.1 1.2-6.1-4.9-6.1-7 0-14-.1-20.9 0-3.6.1-5.1-1.4-5-5 .2-5.5.2-11 0-16.4-.1-3.3 1.2-5 4.6-5h35.9c2.9 0 4.2 1.3 4.2 4.3-.1 6 0 12 0 17.9 0 1.8-.5 4.1-2.3 3.8-5.8-.9-8.2 3.4-11.6 6.5z"/><path class="st0" d="M937.3 763.4c2.2-6.5 2.2-6.5-3.4-6.5-7 0-14-.1-21 0-4.3.1-6-1.7-5.8-6 .2-5 .1-10 0-15 0-3.4 1.1-5.2 5-5.2 11.6.1 23.3.1 34.9 0 3.7 0 5.1 1.3 5 5-.2 5.3-.1 10.6 0 16 0 2.4-.6 5-3.1 4.8-4.6-.4-7 2-9.2 5.2-.4.6-1.1.8-2.4 1.7z"/><path class="st3" d="M1533.7 407.7c1.7-3.9.9-5.6-3.8-5.4-6.8.4-13.7 0-20.5.1-3.9.1-5.4-1.6-5.3-5.4.2-5 .1-10 0-15-.1-3.3 1.2-5 4.7-5h34c3.2 0 4.5 1.4 4.5 4.6-.1 5.5 0 11 0 16.5 0 1.5-.2 3.9-1.7 3.7-5.5-.7-8 3.6-11.5 6.2l-.4-.3zm-47.5-5c1.6-6.4 1.6-6.4-4.7-6.4-6.7 0-13.3-.1-20 0-3.4.1-4.8-1.3-4.7-4.8.1-5.3.1-10.6 0-16-.1-3.5 1.6-4.7 4.9-4.6 11.1.1 22.3.1 33.4 0 3.6 0 5.1 1.3 5 5-.2 5.3-.1 10.6 0 16 0 1.9-.3 4.4-2.5 4.1-4.9-.7-7.1 2.4-9.6 5.5-.4.5-1.1.8-1.8 1.2zM1155 478c-.5.4-1 1.3-1.5 1.3-5.2.2-9.2 2.3-11.9 7.1 1-6.4 1-6.4-5-6.4-6.5 0-13-.1-19.4.1-3.7.1-5.1-1.5-5-5 .1-5 .1-10 0-15-.1-3.7 1.7-5 5.2-5 10.8.1 21.6.1 32.4 0 3.6 0 5.2 1.4 5.1 5-.1 6 0 12 .1 17.9-.1.1 0 0 0 0z"/><path class="st0" d="M1345.9 795.9c1.7-3.9.5-5.2-3.8-5.1-6.8.3-13.7 0-20.5.1-3.4.1-4.8-1.3-4.7-4.7.1-5.2.2-10.3 0-15.5-.1-3.6 1.7-4.7 4.9-4.7h33c2.9 0 4.3 1.1 4.3 4.1-.1 5.7 0 11.3 0 17 0 1.4-.4 3.4-1.7 3.2-5.3-.9-7.6 3.6-11.2 5.7l-.3-.1z"/><path class="st3" d="M1382 196.1c1.1-4.9-1.1-6-5.7-5.7-6 .4-12 0-18 .1-3.7.1-5.6-1.1-5.4-5.2.2-4.8.1-9.7 0-14.5-.1-3.4 1.2-4.9 4.7-4.8 10.8.1 21.7.1 32.5 0 3 0 4.7 1 4.7 4.3-.1 5.3 0 10.7 0 16 0 1.6-.3 3.8-1.8 3.6-5.4-.7-7.7 3.5-11 6.2zm-68.3 521c.8-3.6-1-4.3-3.8-4.3-7.3.1-14.6-.1-21.9.1-3.3.1-4.5-1.1-4.3-4.4.2-5 .1-10 0-15-.1-2.9.8-4.3 3.9-4.3 11.1.1 22.3.1 33.4 0 2.8 0 3.9 1.3 3.8 4-.1 5.3 0 10.6 0 15.9 0 2.5-1.2 4-3.6 3.6-3.6-.6-5.5 1.4-7.5 4.4zm-141.6-445.7c2.7-5.4.6-6.4-4-6.2-6.5.3-13 0-19.4.1-3.5.1-5.2-1.1-5.1-4.9.2-5.1.1-10.3 0-15.5 0-2.9 1.2-4.2 4.2-4.2 11.1.1 22.3.1 33.4 0 3.3 0 4.4 1.4 4.3 4.6-.1 5.1-.1 10.3 0 15.5 0 1.7 0 4.2-1.9 4-5.2-.4-7.9 3-11.5 6.6zm168.2 52.1c1.5-3.5.4-4.7-3.4-4.6-6.8.2-13.6-.1-20.4.1-3.7.1-5.1-1.3-4.9-5 .2-5 .1-10 0-14.9-.1-3.2 1.2-4.5 4.4-4.5 11 .1 21.9.1 32.9 0 3.3 0 4.4 1.4 4.3 4.6-.1 5.1 0 10.3 0 15.4 0 1.9-.2 4.5-2.4 4.1-5.1-1.1-6.7 3.1-9.6 5.4l-.9-.6zm29.6 156.4c1-3.3-.1-4.4-3.6-4.3-6 .2-12 0-18 .1-3.6.1-5.2-1.3-5.1-5 .1-4.3.1-8.7 0-13 0-3 .9-4.7 4.3-4.6 10 .1 20 .1 30 0 2.9 0 4.3 1.1 4.3 4.1-.1 4.8 0 9.7 0 14.5 0 1.9-.7 3.9-2.5 3.7-4.5-.7-6.2 2.9-8.9 5l-.5-.5zm-277.2 10.7c1.2-3.4.3-4.7-3.6-4.6-6.1.3-12.3 0-18.4.1-3.1.1-4.6-1.2-4.5-4.4.1-4.5.1-9 0-13.5-.1-3.1 1-4.6 4.3-4.5 10 .1 19.9.1 29.9 0 3.3 0 4.5 1.4 4.4 4.5-.1 4.5 0 9 0 13.5 0 1.7-.3 4.3-2 4-5-.9-6.6 3.4-9.8 5.3-.1-.1-.2-.2-.3-.4zm239.9 190.9c1-3 .7-4.6-3.2-4.5-6.1.3-12.3-.1-18.5.1-3.8.1-5-1.4-4.9-5 .2-4.5.1-9 0-13.5 0-2.7 1.2-3.9 3.9-3.9 10.1.1 20.3.1 30.4 0 3.1 0 4.1 1.5 4.1 4.3v10c.1 4.4.8 9-6.3 8.2-2.6-.3-2.6 4.1-5.3 4.7.1 0 0-.2-.2-.4zm72.4-306.6c.1 6.1.1 12.2.2 18.3 0 2.3-.6 4.1-3.3 3.8-2.8-.2-4.7.6-6 3.2-.5.9-1.2 2.5-3 1.7l.1.1c1.9-3.9.6-5.2-3.6-5-5.8.3-11.6-.1-17.5.1-3.6.1-5.2-1-5.1-4.8.2-4.3.2-8.7 0-13-.1-3.1.9-4.6 4.3-4.5 11.4.2 22.7.2 33.9.1.1.1 0 0 0 0zM1341 606c1.7-3.8.6-5.2-3.6-5-5.8.3-11.6-.1-17.5.1-3.6.1-5.2-1-5-4.8.2-4.3.2-8.7 0-13-.1-3.1.8-4.6 4.2-4.6 10 .1 20 .1 30 0 3 0 4.2 1.2 4.1 4.2-.1 4.7 0 9.3 0 14 0 1.3 0 3.6-1.2 3.5-5-.5-7.3 4-11 5.5v.1zm174.2-197.7c-.5 2.7-.2 4.3 3.3 4.1 5.6-.3 11.3 0 16.9-.1 3.4-.1 4.8 1.2 4.7 4.7-.2 4-.2 8 0 12 .2 3.2-.9 4.6-4.2 4.5-9.1-.1-18.3-.1-27.4 0-3.3 0-4.4-1.4-4.3-4.5.2-3.2.2-6.3 0-9.5-.2-4.2-.2-7.8 5.7-7.3 2.6.2 2.5-3.8 5.1-4.2l.2.3z"/><path class="st0" d="M1407.9 596.9c.5-3.5-.4-5.1-4.5-4.9-5.6.4-11.3 0-16.9.1-3.5.1-4.8-1.3-4.6-4.7.2-4.1.1-8.3 0-12.5-.1-3 1.2-4.2 4.2-4.1 9.6.1 19.3.1 28.9 0 3 0 4.2 1.3 4.1 4.2-.1 3.3-.1 6.7 0 10 .2 4.1.2 7.7-5.7 7.3-2.8-.2-2.8 4-5.5 4.6z"/><path class="st3" d="M1254.9 747.1c-2.7-1.7-4.4-5.3-8.6-4.6-1.3.2-2-1.5-2-3v-14c0-2.5 1.3-3.5 3.8-3.5 9.3.1 18.7.1 28 0 2.8 0 3.9 1.1 3.9 3.9-.1 4.3-.1 8.7 0 13 .1 3.1-1.4 4.1-4.3 4.1-5.7-.1-11.3.2-17-.1-3.2-.1-4.3.8-3.4 3.9l-.4.3zm8.1-578.2c-.1-1.7-2.9.3-2.3-1.3 2-5.7-2.4-3.7-4.6-3.8-4.8-.2-9.6-.1-14.4 0-3 .1-4.7-1-4.6-4.3.1-4 .1-8 0-11.9 0-2.7 1-4 3.8-4h26.9c2.7 0 4 1.1 3.9 3.9-.1 3.2-.1 6.3 0 9.5.2 3.9.2 7.3-5.4 7.1-2-.2-4.1 1.9-3.3 4.8z"/><path class="st0" d="M1472 444c-2.7-1.6-4.3-5-8.3-4.4-1.3.2-2.2-1.4-2.4-2.8-.1-.8-.1-1.7-.1-2.5.2-17.5-2.3-14.8 14.6-15 5.2-.1 10.3 0 15.5 0 3.2 0 4.9 1.2 4.7 4.8-.2 3.8-.2 7.7 0 11.5.1 3.2-1.2 4.5-4.4 4.4-5.2-.1-10.3.1-15.5-.1-3.3-.3-4.7.8-4.1 4.1z"/><path class="st3" d="M1091.7 126.7c1.6-3.7.3-4.7-3.2-4.6-5.3.2-10.6-.1-15.9.1-3.2.1-4.5-1.3-4.4-4.4.1-3.8.1-7.6 0-11.5-.1-2.9 1-4.3 4.1-4.3 8.8.1 17.6.1 26.4 0 3 0 4.2 1.3 4.1 4.2-.1 3.2-.1 6.3 0 9.5.2 3.8.1 7-5.3 6.6-2.7-.2-2.6 3.7-5.8 4.4z"/><path class="st0" d="M1329.2 351.6c-.2-4.5-.2-4.5-5-4.5s-9.6-.1-14.4 0c-3.3.1-5-1.1-4.8-4.6.2-3.8.1-7.6 0-11.5-.1-3 1.3-4.2 4.2-4.1 8.8.1 17.6.1 26.4 0 3.3 0 4.4 1.5 4.3 4.6-.1 2.7-.1 5.3 0 8 .1 4.1.8 8.3-5.7 7.8-2.4-.2-2.4 3.8-5 4.3z"/><path class="st3" d="M1135 356c1.3-3.2.4-4.4-3.2-4.2-5.3.3-10.7 0-16 .1-3.2.1-4.4-1.2-4.5-4.4-.8-15.7-.9-15.7 14.6-15.7 4.7 0 9.4.3 14-.1 5-.4 6.5 1.6 6.1 6.3-.3 2.6-.2 5.3 0 8 .2 3.6-.3 6.5-5 5.9-3.2-.4-2.8 4.6-6 4.1z"/><path class="st0" d="M1293.8 94.8c.5-3-1-3.7-3.7-3.7-5.5.1-11-.1-16.4.1-2.7.1-4.1-1-3.8-3.8v-1c-.4-15.3-.4-15.3 14.9-15.3 5 0 10 .1 14.9 0 3.2-.1 4.5 1.3 4.4 4.5-.1 2.6 0 5.3 0 8 0 3.9 1.1 8.3-5.5 7.9-1.4-.1-2.9 2.4-4.3 3.7-.2-.1-.5-.4-.5-.4z"/><path class="st3" d="M1260.8 718.8c1.3-3.1.4-4.2-2.6-4.1-5 .2-10-.1-15 .1-3.3.1-5-1-4.8-4.6.2-3.5.2-7 0-10.5-.2-3.6 1.4-4.6 4.8-4.5 7.8.2 15.7.2 23.5 0 3.4-.1 5 1.1 4.7 4.6-.2 2.7-.1 5.3 0 8 .2 3.9.4 7.5-5.4 7.1-2.1-.2-2.3 3.1-5.2 3.9z"/><path class="st0" d="M1217 153c.6-3.4-.9-4.3-4.1-4.2-4.8.2-9.6 0-14.5.1-3.1.1-4.6-1.1-4.5-4.4.1-3.7.1-7.3 0-11-.1-3.1 1-4.6 4.3-4.6 8.1.1 16.3.1 24.4 0 3.2 0 4.6 1.2 4.5 4.4-.1 2.8-.1 5.7 0 8.5.1 3.8.5 7.5-5.3 7.1-2.3 0-2.5 3.6-4.8 4.1z"/><path class="st3" d="M1435.1 196.1c.5-3.5-1-4.4-4.4-4.2-4.6.3-9.3-.1-13.9.1-3.1.1-4.2-1.2-4.1-4.1.4-18.1-2.8-14.3 13.9-14.7 4.6-.1 9.3.1 14 0 3-.1 4.3 1.2 4.2 4.1-.1 2.8-.1 5.7 0 8.5.1 3.6.2 6.8-5 6.3-2.5-.2-2.4 3.5-4.7 3.9v.1zM1370 366.9c2-4.3-.5-4.3-3.6-4.2-4.5.2-9-.1-13.5.1-3.5.2-4.5-1.3-4.6-4.7-.2-13.9-.3-13.9 13.3-13.9 4.8 0 9.7.1 14.5 0 2.7 0 4 1 3.9 3.8-.1 2.8-.1 5.7 0 8.5.1 3.5.4 6.8-4.9 6.4-2.3-.3-2.4 3.4-5.1 4z"/><path class="st0" d="M1388.9 144.9c.2-2.3-.8-3.2-3.2-3.1-4 .2-8 .1-11.9 0-1.2 0-2.5.3-3.5-.1-6.5-3.4-2.1-9.5-3.1-14.2-.7-3.2 1.9-3.7 4.5-3.6 7.3.1 14.6.1 21.9 0 3.3-.1 4.5 1.3 4.3 4.4-.1 2.6-.1 5.3 0 8 .2 3.4-.2 6-4.6 5.7-2-.1-2.4 2.6-4.4 2.9z"/><path class="st3" d="M1229.9 578.8c1.1-3.3-.1-4.2-3-4.1-3.8.2-7.6 0-11.4 0-.8 0-1.8.3-2.5-.1-5.4-3.1-1.6-8.3-2.6-12.4-.5-2.4.4-4.2 3.4-4.2 7.1.1 14.3 0 21.4 0 .5 0 1 0 1.5.1 2.7.8 2.4 3.1 2.1 4.9-.6 3.8 2.5 9-2.1 11.2-2.5 1.3-4.7 2.2-6.8 4.6zm267.6-313.3c0-2.4-.4-3.7-3.1-3.5-4.1.2-8.3.1-12.4 0-1.3 0-3 .2-3.3-1.4-.7-4.3-.6-8.6-.1-12.9.2-1.7 1.8-1.6 3.2-1.6h20.4c.5 0 1.2-.1 1.5.1 3.8 3.3 1.2 7.7 1.8 11.6.3 1.7.5 4.2-2.2 4.1-2.9-.1-4.1 1.8-5.8 3.6zM1419 464c0-1.9-.5-3.1-2.8-2.9-3.5.2-7 .1-10.5.1-.8 0-1.7-.1-2.5 0-4.1.3-3.8-2.9-3.2-5.1.9-3.6-3.4-9.6 3.1-10.6 6.6-1 13.6-.2 20.4-.2.5 0 1.1-.1 1.5.1 4.2 2.8 1.4 7 2 10.5.3 1.8 1.2 5.1-2 5.1-3.1-.1-4 2.1-6 3z"/><path class="st0" d="M1086 536c.3-2.6-1.2-3-3.4-2.9-4 .1-8-.1-12 .1-2.5.1-3.6-.8-3.6-3.4.2-14.9-1.7-12.2 11.3-12.5 3.8-.1 7.7 0 11.5 0 1.7 0 3.8 0 4 2.1.3 4 .1 8 .1 12 0 .9-.7 1.8-1.5 1.6-3.1-.8-4 2.5-6.4 3z"/><path class="st3" d="M1263 169c7.5 0 14.9.2 22.4 0 3 0 4.3 1 4.2 4-.1 2.2-.1 4.3 0 6.5.1 3 .1 5.8-4.2 5.5-1.2-.1-1.6 1-2.2 1.8-.4.5-1.2 1.4-1.5.9-3.1-5.7-8.3-2.1-12.4-2.6-6.3-.7-6.4-.2-6.4-6.7 0-3.2.1-6.3.1-9.4 0-.1 0 0 0 0zm124.1 149.1c-.3-1.8-.3-3.4-3-3.3-4.1.3-8.3 0-12.4.1-2.5.1-3.4-1-3.6-3.5-1-12.3-1-12.3 11.3-12.3 3.8 0 7.6.1 11.5 0 2.9-.1 4.4.9 4.1 4-.2 2.1-.1 4.3 0 6.5.1 3 .2 5.8-4.2 5.5-1.9-.1-1.9 2.6-3.7 3z"/><path class="st0" d="M1272 139c.1-2.3-1-3.1-3.3-3-3.8.2-7.6.1-11.5 0-1.5 0-3.5.3-3.8-1.5-.9-4.2-.7-8.6-.1-12.8.3-1.6 1.9-1.6 3.3-1.6h19.4c2.7 0 4 1.1 3.9 3.9-.1 1.8 0 3.7 0 5.5 0 3.3.7 6.9-4.5 7-1.1-.1-2.3 1.6-3.4 2.5zm56 149c0-2.2-1-3.2-3.4-3.1-4 .2-8 0-12 0-1.5 0-3.4-.1-3.5-2-.3-4-.2-8 0-11.9.1-1.9 1.9-2 3.5-2h19.5c2.7 0 4 1.2 3.9 3.9-.1 2.2-.1 4.3 0 6.5.1 3 .2 5.9-4.2 5.6-2 0-2.1 2.6-3.8 3zm-137-72c.1-2.2-.9-3.2-3.3-3.1-4 .2-8 0-12 0-1.5 0-3.4-.1-3.6-1.9-.3-4-.3-8 0-12 .1-1.9 1.9-2 3.5-2h19.5c.7 0 1.5-.1 1.9.3 3.8 3.2 1.1 7.4 1.8 11.2.3 1.7.4 4.3-2.1 4.2-2.8-.1-3.8 2.2-5.7 3.3zm76.9 112.9c-.2-2.6-2.2-2-3.7-2.1-3.7 0-7.3-.1-11 0-3.3.1-4.5-1.3-4.3-4.5.2-2.7.1-5.3 0-8-.1-2.6 1-3.5 3.6-3.5 6.5.1 13 .1 19.5 0 2.7 0 4.1 1 4 3.8-.1 1.7-.1 3.3 0 5 .1 3.7.6 7.6-5.1 7.5-1 0-1.4 1.9-2.8 1.9l-.2-.1zm-134.7-209h3c9.9 0 11.8 2.5 9.8 12.4-.6 2.8-2.7 2.6-4.5 2.9-1.3.2-1.6 4.1-4.2.5-1.5-2.2-6-.3-9-.7-2.6-.4-6.4 1.6-7.7-1.6-1.4-3.6-.8-7.9-.2-11.8.3-1.6 2-1.5 3.3-1.6 3.1-.1 6.3-.1 9.5-.1z"/><path class="st3" d="M855.3 621.4c.8-6.4 3.7-12.2 5-18.5.2-1.3 1.1-2.1 2.5-1.9 4.2.4 8.5-.3 12.7 1-.1 5-.1 9.9-.2 14.9 0 1.8.1 4.5-2.3 4.1-4.3-.6-6.1 2.2-8.4 4.7l-.9-.9c.6-2.5-.1-3.8-2.9-3.6-1.8.1-3.6.1-5.5.2z"/><path class="st0" d="M1110.1 257.1c.1-5.1-1.6-10.1-1-15.2 5.5 0 10.9.2 16.4 0 4-.2 6 1 5.5 5.3-.2 2 0 4-.1 6 0 1.4-6.6 7-7.2 6.2-4-5-9.2-1.1-13.6-2.3z"/><path class="st3" d="M890.9 723.5h2c9.7 0 10.6 1 9.1 10.7-.4 2.3-5.2 4-7.3 3.1-3.1-1.4-6.6-.8-9.8-.4-6.2.7-5.5-3.1-5.6-7.1-.2-4.2.2-7.3 5.7-6.4 1.9.3 4 .1 5.9.1z"/><path class="st0" d="M999.2 93.7c-11.4-1.3-22.8-.8-34.2.2 0-11.6-1.1-10 10.1-10.1 6.1-.1 12.3.3 18.4-.1 4.8-.3 6.3 1.6 5.7 6-.2 1.4 0 2.7 0 4zm402.9 56.9c0-6.5 0-6.5 6.6-6.6h12.5c2.5 0 3.5 1.1 3.7 3.6.6 7-.5 9.1-6.4 11.8-.3.2-1.1.2-1.1.2-1.6-5.3-5.9-2.2-8.8-2.4-6.5-.5-6.6-.1-6.5-6.6z"/><path class="st3" d="M1154.8 213.2h2.5c9 0 10.1 1.3 8.6 10.4-.4 2.5-4.9 3.7-7.3 3-3.1-.8-6.6-.8-9.8-.4-6.2.8-5-3.3-5.2-6.8-.2-3.8-.1-7.1 5.3-6.3 1.8.4 3.9.1 5.9.1zm104.1 57.8h2.5c9.3.2 8.4-2.1 8.4 9 0 3.8-3.6 5.3-7.4 4.3-3.1-.8-6.6-.6-9.9-.3-3.9.3-5.7-1-5.1-5 .1-.8.1-1.7 0-2.5-.7-4.4 1.2-6.1 5.6-5.5 1.9.2 3.9 0 5.9 0zm28 9.8h2c9.9 0 10 .1 9 9.9-.3 2.9-4.6 4.3-7.4 3.5-2.9-.8-6.3-.6-9.4-.3-4.4.4-5.8-1.2-5.7-5.6.3-9.1-.2-7.4 7.5-7.5h4z"/><path class="st0" d="M942 700c-.4-2.5-2.3-1.9-3.9-1.9-1.7-.1-3.3 0-5 0-7.1 0-6.8 0-7.2-6.9-.2-4.7 1-6.8 6.1-6.3 4.1.4 8.3.2 12.5 0 3.3-.1 4 1.3 4.4 4.4.8 5.9-1.3 9.3-6.9 10.7zm39 98c-.2-2.2-1.8-1.9-3.3-2h-6c-6.6 0-6.6 0-6.6-6.5s0-6.5 6.6-6.5c4 0 8 .1 12 0 2.9-.1 3.9 1 4.3 4 .7 5.8-.9 9.7-7 11zm559.2-340.2h4.5c7.6 0 7.6 0 7.3 7.6-.1 2.8-4.5 7.1-6.6 5.8-4.1-2.6-8.4-1.2-12.4-1.2-5.3.1-4.9-2.9-4.9-6.4 0-3.3-.3-6.5 4.7-5.9 2.4.4 4.9.1 7.4.1zm-99.8 242.1h4c7.7 0 7.7 0 7.6 7.4-.1 3.1-4 7.3-6.4 6-4.7-2.5-9.3-.8-13.9-1.2-5.8-.6-3-4.8-3.5-7.6-.6-2.8.2-4.9 3.9-4.6 2.7.2 5.5 0 8.3 0z"/><path class="st3" d="M1295.8 421.4c2.3 4.8-4 7.1-5.2 6.6-5-2.2-10.2 0-14.9-1.7-2.9-1.1-1-4.4-1.4-6.7-.8-4.3.9-6.1 5.4-5.6 3.1.4 6.3.1 9.5.1 6.6-.1 6.6-.1 6.6 7.3z"/><path class="st0" d="M1234.9 827.5c2.6 5.8-5.1 7.6-5.5 7.4-5.2-3.7-11.5.2-16.3-2.2-3.1-1.5-1-6.1-1.2-9.2-.2-2.4 1.9-2.3 3.5-2.3 4.5 0 9 .3 13.5-.1 5.2-.6 7.3 1.1 6 6.4z"/><path class="st3" d="M1364.6 323.9h2c9.4.2 8.4-2 8.4 8.9 0 3.5-4 5-7.3 4-2.9-.9-6.2-.6-9.3-.4-3.7.3-5.3-.9-4.8-4.7.2-1.3.1-2.7 0-4-.3-3.1 1.2-4.1 4.1-3.9 2.2.2 4.5.1 6.9.1z"/><path class="st0" d="M1307.1 737.9h3.5c7.4 0 7.4 0 7.2 7.5-.1 4.3-3.3 6-7.5 5-3-.7-6.3-.5-9.4-.4-3 .1-4.3-.9-4-4 .1-1.3.2-2.7 0-4-.4-3.4 1.1-4.5 4.3-4.2 1.9.2 4 .1 5.9.1zm79.1-125.9h2c8.4 0 8.4 0 8 8.5-.2 3.7-3.4 5.1-6.9 4-2.8-.9-6-.7-8.9-.3-5.3.6-4.5-2.9-4.5-6 0-3-1-6.8 4.4-6.2 1.9.2 3.9 0 5.9 0zM1272 339.3c2.1 4.6-1.9 5.7-4.6 7.5-1.9 1.3-1.5-2.3-3.7-1.8-2.7.6-5.6 0-8.4.2-2.6.1-3.7-.9-3.5-3.5.1-1.7.1-3.3 0-5-.2-2.8 1-3.9 3.8-3.7 3.5.2 7 .3 10.4 0 5-.6 7.3 1 6 6.3z"/><path class="st3" d="M1090.8 499.1c1 0 2-.2 3 0 1.9.4 5.2-1.4 5.2 2.5 0 3.1 1.5 8-3.4 7.9-4.1-.1-8.6.7-12.3-1.1-2.3-1.1-.9-4.9-.8-7.4.1-2 1.9-1.9 3.4-1.9h4.9zm336-22.1c1 0 2-.2 3 0 1.9.4 5.2-1.5 5.2 2.4.1 3.2 1.5 8-3.5 7.9-4-.1-8.6.6-12.2-1.1-2.3-1.1-1-4.9-.9-7.4.1-2.1 2-1.8 3.4-1.8h5zm92.8-172.7c1.2 0 2.4-.1 3.5 0 1.9.3 4.8-1.2 4.9 2.4.1 3.2 1.4 8-3.6 7.9-3.9 0-8.3.4-12-1-2.6-1-.9-4.5-1.2-6.8-.2-1.9 1-2.6 2.8-2.6 2 .1 3.8.1 5.6.1zm-225.9 415.2c1 0 2-.2 3 0 1.9.4 5.2-1.5 5.2 2.5 0 3 1.7 7.3-3.3 7.7-4.1.3-8.6.3-12.4-1.1-2.3-.8-.9-4.8-.9-7.3 0-2.2 2-1.7 3.4-1.8 1.7-.1 3.3 0 5 0zM1520 440.9c.8 0 1.7-.1 2.5 0 1.8.3 4.5-1.2 5.3 1.3.8 2.4 1.2 5.6-.3 7.7-1.1 1.5-3.5 2.6-6 1-1.1-.7-2.9-.1-4.4-.1-5.4 0-7.4-3-5.7-8.2.5-1.4 1.4-1.7 2.6-1.7h6zM940.9 638c1.2 0 2.3-.1 3.5 0 1.7.3 4.8-1.1 4.6 2-.2 2.7 2.8 7.4-2.7 8-4.2.5-8.7.6-12.7-.7-2.4-.8-.9-4.8-1-7.3 0-2.2 1.8-2 3.3-2h5zm-.4 25.6c1.3 0 2.7.2 4 0 3.5-.5 4.1 1.3 4.1 4.3.1 3.4-1.3 4.4-4.4 4.1-1.6-.2-3.3-.1-5-.1-3-.1-6.3 1.1-6.2-4.3.1-5.2 3.3-3.8 6-4 .5-.1 1 0 1.5 0zM1486 224.5c2.9-.2 6.9-.9 6 5.2-.3 1.8-.8 3-2.5 3-3.3 0-6.8.3-10-.6-2.3-.6-1-3.5-1.2-5.3-.2-1.7.9-2.3 2.5-2.3h5.2z"/><path class="st0" d="M1353.4 290c-3.7-.2-8.3 1.4-7.3-5 .3-2 1.1-3 3.2-3 1.7 0 3.3.1 5 0 3.4-.2 6.2-.2 5.8 4.7-.4 4.6-3.2 3.7-6 3.2-.4 0-.7.1-.7.1zm-60.9 41.9c-1.9-.4-4.4 1-5.8-1.2-1-1.5-.7-3.6-.3-5.3.5-2 2.4-1.3 3.8-1.4 1.5-.1 3 0 4.5 0 2.8 0 5.5-.6 5.5 4-.1 4.9-2.9 4.2-5.9 4-.7-.1-1.2-.1-1.8-.1zM1332 88c.7 3.2-1.8 5.2-3.7 4.2-3.3-1.7-10 3.3-9.9-4.4.1-7 5.8-3.1 9-3.8 2.9-.7 5.4.1 4.6 4z"/><path class="st3" d="M1124.2 108.2c.9 3.1-1.2 4.3-3.3 4.5-6.8.5-9.5-1.1-9.2-5 .6-6.5 5.6-2.3 8.4-3.2 2.8-.9 5.2.1 4.1 3.7zM1515.3 287c7.2 0 7.2.2 7 5.3-.1 2.6-2.5 3.6-3.3 3.3-2.9-1-5.7-.3-8.5-.8-2.7-.6-1.4-2.9-1.6-4.6-.2-1.4-.3-3.2 2-3.2h4.4zm-440.4-145.3c-3.1-3.1-5.8-6.5-8.1-10.2 1.5 0 3-.1 4.4.1 1.9.3 5-1.3 5.4 1.6.3 2.8 1.9 6.3-1.7 8.5zm-19.3-21.4c-2.4-1.5-4.8-3-6.5-5.4 4-.5 6.3 1.2 6.5 5.4zm100.8 359.3c-.5-.5-1-1-1.5-1.6l-.1.1c.7.5 1.8-.3 2.3.7-.2.2-.4.5-.7.8zM864.6 625.7c-.5.3-1.3 1-1.4.9-.8-.8 0-1.3.5-1.8.4.3.6.6.9.9zm360.7-465.2c-.1-.4-.2-.8-.2-1.2.4.2.8.3 1.1.5-.3.2-.6.5-.9.7z"/><path class="st0" d="M1184.1 132.9c.1.2.2.4.4.5-.2-.1-.4-.2-.5-.4l.1-.1zM1217 153c0 .1-.1.3-.2.4 0 .1-.2 0-.3.1l.5-.5z"/><path class="st3" d="M1331.1 169.9l-.6-.3h.3c.1.1.1.3.3.3-.1.1 0 0 0 0z"/><path class="st0" d="M1389 145c-.2.2-.4.3-.6.5.2-.2.4-.4.6-.5-.1-.1 0 0 0 0zM942 700c-.1.2-.2.3-.3.5v-.3c.1-.1.2-.1.3-.2zm352.1-604.9c-.2.2-.5.6-.5.6-.6-.4-.1-.7.2-.9l.3.3zm52 701c-.2.1-.4.3-.7.4.1-.2.3-.4.4-.6.1 0 .3.2.3.2z"/><path class="st3" d="M1382 196c-.2.2-.4.4-.7.5 0-.2-.1-.4 0-.5.2-.4.5-.4.7 0 0 .1 0 0 0 0zm-126.7 550.7c.2.3.3.6.5.9-.6.2-.7-.1-.8-.5-.1 0 .3-.4.3-.4z"/><path class="st0" d="M981 798c-.1.2-.2.3-.3.5v-.3c.1-.1.2-.1.3-.2z"/><path class="st3" d="M1435 196c-.2.2-.4.3-.6.5v-.4h.7l-.1-.1z"/><path class="st0" d="M1457.8 691.4h-.3c0-.1 0-.3.1-.3.1-.1.3-.1.4-.1-.1.1-.1.2-.2.4zM1272 139c0 .1-.1.3-.2.4 0 .1-.2 0-.3.1l.5-.5z"/><path class="st3" d="M1093.1 491c-.2.2-.4.5-.6.7-.6-.5-.3-.8.2-1.1.1.2.2.3.4.4zm277.3-10.6c-.3.1-.7.3-1 .4.2-.3.3-.6.5-.8.2.1.3.2.5.4zM1419 464c-.1.2-.2.5-.4.7-.1-.2-.2-.3-.4-.5.3-.1.5-.2.8-.2z"/><path class="st0" d="M1086 536c-.1.2-.3.3-.4.5v-.3c.1-.1.3-.2.4-.2z"/><path class="st3" d="M1093 461c.1 0 .3.1.4.1-.1.1-.3.2-.4.3v-.4z"/><path class="st0" d="M1491.7 449.3c-.3-.3-.8-.5-.2-.9.1 0 .4.3.6.5l-.4.4zM1472 444c.2.1.3.3.5.4h-.3c-.1-.1-.1-.3-.2-.4z"/><path class="st3" d="M1534.1 408.1c-.2.2-.4.5-.6.7l-.3-.3c.2-.2.4-.5.6-.7l.3.3zm-19.1-.1l.6-.6c.1.1.3.4.2.4-.2.2-.4.4-.6.5l-.2-.3zm-223.5 169.7c-.4.1-.8.1-1.2.2.2-.3.3-.7.5-1 .3.2.5.5.7.8zm101.4-175.8c-.1.2-.1.4-.2.6 0-.1-.1-.2-.1-.3.1-.1.2-.2.4-.3 0 .1-.1 0-.1 0zm-258-46v.6h-.4c.2-.2.3-.4.5-.5l-.1-.1z"/><path class="st0" d="M1268.1 329.1c-.2.1-.4.3-.6.4.1-.2.3-.4.4-.6l.2.2zM1408 597c-.2.1-.4.3-.6.4.2-.1.4-.3.6-.4-.1-.1 0 0 0 0z"/><path class="st3" d="M1341.1 324.1c-.2.5-.5.8-1 .5-.1-.1.2-.7.3-1.1.2.2.5.4.7.6zm-.2 281.8v.6h-.4c.2-.2.3-.4.5-.5l-.1-.1zM1387 318c-.2.2-.4.4-.6.5 0-.1 0-.3-.1-.4.3 0 .5 0 .7-.1.1.1 0 0 0 0z"/><path class="st0" d="M1201 316c.1.1.3.1.4.2.1 0 0 .2 0 .3-.1-.2-.3-.4-.4-.5zm127-28c-.1.1-.1.3-.2.4 0 .1-.2 0-.3 0 .2-.2.4-.3.5-.4z"/><path class="st3" d="M1333 682c-.1.4-.3.8-.8.4-.1-.1.2-.6.4-.9.2.2.3.4.4.5zm147.3-416.5c-.3-.4-.6-.9.1-1.2.1-.1.5.3.7.5-.2.2-.5.5-.8.7z"/><path class="st0" d="M1191 216c-.1.1-.1.3-.2.4 0 .1-.2 0-.3 0 .2-.1.4-.3.5-.4z"/><path class="st3" d="M902.3 202.3c30 1.2 59.9 4 87.8 16.1 16.8 7.3 31 17.8 36.9 36.3 4.4 13.5 2.9 27.1-.5 40.4-5.6 21.5-14.1 41.9-21.9 62.6-13.5 35.7-25.4 71.9-32.4 109.5-.4 2-.5 4-1.1 5.9-.9 3.2 1 7.8-1.9 9.2-2.1 1-5.9-1.3-8.9-2.4-9.1-3.2-18.2-6.5-27.3-9.6-2.5-.9-3.3-2.2-2.9-4.9 1-5.9 2.1-11.8 3.8-17.6.5-1.6 1.9-3.7.2-5.1-1.4-1.2-3.1.4-4.6 1-32.2 12.7-63.3 8.3-92.8-7.9-23.1-12.6-33.9-38.1-28.2-64.5 6.6-30.4 23.4-53 53.3-64.4 15.8-6 32.3-5.9 48.8-4.5 21.2 1.7 41.8 6.4 62.2 11.7 2.2.6 3.7.9 4.8-1.7 4.8-11.2 8.7-22.7 8.8-35.1.1-11.7-5.6-19.9-15.1-25.9-12.3-7.9-26-11.8-40.1-14.7-18.3-3.8-36.8-5.7-55.6-5.4-2.8 0-3.7-.6-2.2-3.4 4.1-7.6 8.1-15.3 12-23 1-2 2.5-3 4.7-2.9 4.2.3 8.2.3 12.2.3zm-1.2 128.3c-27.1-.4-45.2 11.3-54 35-5.7 15.5-1.4 29.1 12.3 38.4 7.2 4.9 15.1 8.3 23.4 10.9 18.9 5.7 37.8 7.1 56.8.3 2.6-.9 4.1-2.2 5-4.9 5.8-18.2 11.8-36.4 17.6-54.6 1.2-3.9 4.9-8.3 3.1-11.6-1.8-3.2-7.4-2.9-11.4-4-17.2-4.9-34.6-9.2-52.8-9.5z"/><path class="st4" d="M998.4 95.3c2.3 2.3 5.4 1.1 8.1 1.7 15.4 3.5 29.1 10.3 41.8 19.4 1.6 2.4 4.1 3.9 6.5 5.4 3.7 3.7 7.4 7.5 11.2 11.2 2.3 3.7 5 7.2 8.2 10.3 19.7 28.9 29.6 61.3 33.3 95.8.2 1.5.5 2.9.8 4.4-.6 5.1 1.1 10.1 1 15.2.6 28.3-1.4 56.3-7.1 84.1-1.2 6-2.5 12-3.8 18-2.3 5.2-3.3 10.7-4.2 16.2-2.4 7.5-4.8 14.9-7.3 22.4-6.9 16.5-13.5 33.1-21.2 49.2-6.3 11.3-12.7 22.6-19 34-13.2 19.7-27.4 38.5-43.7 55.8-2.2 1.8-4.5 3.4-5.8 6.1-7.4 6.3-14.8 12.7-22.1 19-6.7 4.7-13.3 9.4-20 14-8.1 4.1-16.2 8.3-24.4 12.3-11.4 5.6-23.7 8.4-35.8 11.7-6.8.6-13.6 1.3-20.3 1.9-4.2-1.2-8.5-.5-12.7-1-1.4-.1-2.2.7-2.5 1.9-1.2 6.3-4.2 12.1-5 18.5-1.1 3.8-2.1 7.7-3.2 11.5-4.4 11.5-7.4 23.5-10.4 35.5-6.5 22.1-13 44.3-19.6 66.4-.9 3.1-2 6.1-3 9.2-2.1.6-1.6-2.8-3.7-2.4-4.9 21.1-11.7 41.5-17.8 62.1-4.4 14.9-7.8 30.1-13.1 44.9-3.5 9.8-5.7 20-8.3 30.1-.7 2.8-1.8 3.7-4.5 2.6-2.9-1.2-5.9-2.3-8.9-3.3-23.2-7.5-45.6-17.2-68.7-25.2-3-1.1-3.5-2.7-1.8-5.2 3.6-5.2 5.4-11.3 7.9-17.1 8.4-18.9 16.7-37.9 25.9-56.5 7.4-14.8 12.8-30.5 20.7-45.1 5.4-10 9.2-20.9 14-31.3 9-19.9 18.2-39.8 27.3-59.7 7.6-16.5 15.2-33.1 22.8-49.6 3.5-7.5 3-10.3-2.7-14.7-11.4-8.9-20.2-20-27.9-32.2-11.2-17.7-18.1-37.3-22.8-57.5-4-17.2-5.9-34.9-6.4-52.6-.3-12.6 1-25.2 1.8-37.7 1.3-18.9 5.1-37.3 9.2-55.7 2-9 4.9-17.8 7.7-26.6 5.1-15.6 10.2-31.3 17.2-46.2 6.1-12.8 12.5-25.5 19.5-37.9 5.5-9.8 11.5-19.3 18.2-28.2 6.1-8 12.5-15.9 18.9-23.7 12.1-14.8 25.9-27.6 40.8-39.4 13.9-11 29.1-20.1 45.5-27.2 3.1-1.4 3.3-2.5 1.3-4.7 9.2-5.4 19.5-7.1 29.7-9 1.4-.3 2.9-.7 4.3-1 11.2-1 22.6-1.4 34.1-.1zm59.1 139.2c-.4-6-.8-11.9-1.3-17.9-2-21.5-6.3-42.5-16.2-61.9-13.1-25.6-32.5-41.8-62.8-41.2-3.5-3.3-7.6-3.6-12.1-2.5-5.6 1.4-11.1 3.1-16.5 5.4-20.9 8.7-38.4 22.1-53.8 38.2-12.1 12.7-23.9 25.7-33.6 40.5-6.5 9.8-13.2 19.5-19 29.7-14.4 25.2-26.2 51.6-36.2 78.8-5 13.7-8.8 27.7-12.6 41.7-3.7 13.6-5.8 27.7-8.5 41.6-2.7 13.8-4 27.9-4.5 41.8-.5 13.9-.6 27.9.6 41.8 1.2 13.9 3.2 27.6 6.8 40.9 4 15 10.3 29 19.7 41.5 5.9 7.9 13.4 14.1 21.5 19.6 2.3 1.6 4.5 1.3 5.2-2 5.1 2 10.2 4 15.6 4.9 19.8 3.3 37.6-2.4 54.5-11.9 27.8-15.8 48.8-38.8 67.7-64 11.4-15.2 20.9-31.6 30.4-48 3-1.1 6-2.7 7.4-5.6 4.7-9.4 9.4-18.9 13.5-28.6 5.1-12.2 10-24.4 14.3-36.9 4.3-12.6 8.3-25.3 11.3-38.3 2.2-9.3 3.9-18.8 5.9-28.1 3-14.3 3.9-28.8 5.6-43.2.9-7.6.6-15.2 1.2-22.8.3-4.5.6-10-4.1-13.5z"/><path class="st5" d="M930.1 105.5c2 2.2 1.9 3.4-1.3 4.7-16.3 7.1-31.5 16.2-45.5 27.2-14.8 11.8-28.7 24.6-40.8 39.4-6.4 7.8-12.8 15.7-18.9 23.7-6.7 8.9-12.7 18.5-18.2 28.2-7 12.4-13.4 25.1-19.5 37.9-7 14.9-12.1 30.5-17.2 46.2-2.9 8.8-5.7 17.6-7.7 26.6-4.1 18.4-7.9 36.8-9.2 55.7-.8 12.6-2.2 25.1-1.8 37.7.4 17.7 2.4 35.4 6.4 52.6 4.7 20.2 11.6 39.7 22.8 57.5 7.7 12.1 16.5 23.3 27.9 32.2 5.7 4.4 6.2 7.2 2.7 14.7-7.6 16.5-15.2 33.1-22.8 49.6-9.1 19.9-18.3 39.8-27.3 59.7-4.7 10.4-8.6 21.2-14 31.3-7.9 14.6-13.3 30.3-20.7 45.1-9.2 18.6-17.5 37.5-25.9 56.5-2.5 5.7-4.3 11.8-7.9 17.1-1.7 2.5-1.2 4.2 1.8 5.2 23 8 45.5 17.6 68.7 25.2 3 1 6 2.1 8.9 3.3 2.7 1.1 3.8.2 4.5-2.6 2.6-10.1 4.8-20.4 8.3-30.1 5.3-14.7 8.7-29.9 13.1-44.9 6.1-20.6 12.9-41.1 17.8-62.1 2.1-.4 1.7 3 3.7 2.4-2.6 13.3-7.2 26-10.9 38.9-9.5 33.1-19.2 66.2-28.7 99.3-1.9 6.5-1.8 6.5-8.3 4.2-27.5-10.2-54.9-20.4-82.4-30.4-3.8-1.4-3.9-2.9-2.4-6.1 21.5-46.9 43-93.9 64.4-140.8 19-41.6 38-83.3 57-124.9.9-2.1 1.7-3.6-.7-5.5-26.9-21.5-41.9-50.4-50.8-82.9-10.3-37.6-11.2-75.9-6.4-114.5 6.8-54.8 24.3-106 51.8-153.7 23-40 51.8-75.1 89.7-102 12.4-8.7 25.4-16.5 39.8-21.6z"/><path class="st6" d="M977.1 113.5c-40.6 5.1-68.8 30.3-93.6 59.7-40.7 48.1-66.4 104.1-83.4 164.4-11 39.2-17.1 79-15.9 119.8.6 20.5 3.4 40.8 9.9 60.4 7.4 22.1 18.9 41.1 39.9 52.9-.7 3.3-2.8 3.6-5.2 2-8.1-5.5-15.6-11.7-21.5-19.6-9.4-12.5-15.6-26.6-19.7-41.5-3.6-13.4-5.6-27.1-6.8-40.9-1.2-14-1.1-27.9-.6-41.8.5-14 1.9-28 4.5-41.8 2.7-13.9 4.8-28 8.5-41.6 3.8-14 7.6-28 12.6-41.7 10-27.2 21.8-53.6 36.1-78.8 5.8-10.2 12.5-19.9 19-29.7 9.7-14.7 21.5-27.8 33.6-40.5 15.4-16.1 33-29.5 53.8-38.2 5.4-2.2 10.9-3.9 16.5-5.4 4.7-1.3 8.8-1 12.3 2.3z"/><path class="st4" d="M1002.3 451.6c6.6-14 13.6-27.8 19.5-42.1 17.1-41.7 28.7-84.8 33.5-129.6 1.6-15.1 1.8-30.2 2.2-45.4 4.6 3.5 4.4 9 4 13.5-.6 7.6-.3 15.2-1.2 22.8-1.8 14.4-2.6 28.9-5.6 43.2-2 9.4-3.7 18.8-5.9 28.1-3 12.9-7 25.7-11.3 38.3-4.3 12.5-9.2 24.8-14.3 36.9-4.1 9.7-8.8 19.2-13.5 28.6-1.4 3-4.4 4.5-7.4 5.7z"/></svg>