<?xml version="1.0" encoding="UTF-8" standalone="no"?>
<svg width="178px" height="57px" viewBox="0 0 178 57" version="1.1" xmlns="http://www.w3.org/2000/svg" xmlns:xlink="http://www.w3.org/1999/xlink">
    <!-- Generator: Sketch 39 (31667) - http://www.bohemiancoding.com/sketch -->
    <title>partners_contributors_algolia</title>
    <desc>Created with Sketch.</desc>
    <defs></defs>
    <g id="Partners" stroke="none" stroke-width="1" fill="none" fill-rule="evenodd">
        <g transform="translate(-43.000000, -615.000000)" id="partners_contributors_algolia">
            <g transform="translate(43.000000, 614.655039)">
                <g id="algolia-dark">
                    <g id="Page-1">
                        <g id="algolia-dark" transform="translate(0.210174, 0.375544)">
                            <g id="mark" transform="translate(86.345997, 7.401613)" fill="#46AEDA">
                                <path d="M20.7190756,14.1082253 L18.1310149,23.3407137 L26.4661979,18.7417912 C25.2556764,16.5072865 23.1900812,14.817695 20.7190756,14.1082253 L20.7190756,14.1082253 Z" id="Fill-1"></path>
                                <path d="M6.11043925,7.87832838 C4.99556035,6.75097168 3.18691557,6.75169342 2.07203666,7.87832838 L1.56741478,8.38859801 C0.452535873,9.51523297 0.453249625,11.3441202 1.56741478,12.4714769 L2.1048692,13.0142248 C3.2490119,11.1579115 4.70577749,9.5195634 6.39879462,8.17063276 L6.11043925,7.87832838 L6.11043925,7.87832838 Z" id="Fill-2"></path>
                                <path d="M23.5537975,5.05271925 C23.55808,4.99064968 23.5716413,4.93146706 23.5716413,4.86795401 L23.5716413,3.42447552 C23.5709276,1.83087528 22.2933135,0.538240309 20.7166377,0.537518569 L15.7196676,0.537518569 C14.1437056,0.538240309 12.8653778,1.83015355 12.8653778,3.42447552 L12.8653778,4.84269314 C14.4563286,4.39232784 16.1300744,4.14621476 17.8616341,4.14621476 C19.8465754,4.14621476 21.758714,4.46666699 23.5537975,5.05271925" id="Fill-3"></path>
                                <path d="M18.0641709,11.6079701 C24.3282069,11.6079701 29.4249255,16.7388925 29.4249255,23.0449662 C29.4249255,29.3510398 24.3282069,34.4819621 18.0641709,34.4819621 C11.8001347,34.4819621 6.70341615,29.3510398 6.70341615,23.0449662 C6.70341615,16.7388925 11.8001347,11.6079701 18.0641709,11.6079701 L18.0641709,11.6079701 Z M2.15911428,23.0449662 C2.15911428,31.8871156 9.27879595,39.0567604 18.0641709,39.0567604 C26.8495457,39.0567604 33.9692274,31.8871156 33.9692274,23.0449662 C33.9692274,14.2028166 26.8495457,7.03317172 18.0641709,7.03317172 C9.27879595,7.03317172 2.15911428,14.2028166 2.15911428,23.0449662 L2.15911428,23.0449662 Z" id="Fill-4"></path>
                            </g>
                            <path d="M31.6205924,45.5908243 C30.9646553,43.8362762 30.3486882,42.1120411 29.7705501,40.4166756 C29.1924118,38.7213102 28.5942886,36.9963534 27.9783215,35.242527 L9.82478117,35.242527 L6.1825103,45.5908243 L0.343314181,45.5908243 C1.88430238,41.3036932 3.32964792,37.3384578 4.67935095,33.6936747 C6.02834015,30.0496133 7.34735182,26.590317 8.63995466,23.3172296 C9.93041623,20.0426987 11.2123129,16.9154026 12.484217,13.9338978 C13.7561211,10.9523929 15.085839,8.00047948 16.4733707,5.07743551 L21.6188011,5.07743551 C23.0063328,8.00047948 24.3360507,10.9523929 25.6079548,13.9338978 C26.8798589,16.9154026 28.1610417,20.0426987 29.4529309,23.3172296 C30.7433925,26.590317 32.0631179,30.0496133 33.4128208,33.6936747 C34.76181,37.3384578 36.2071557,41.3036932 37.7488576,45.5908243 L31.6205924,45.5908243 L31.6205924,45.5908243 L31.6205924,45.5908243 Z M26.3595345,30.5663786 C25.1254592,27.1749258 23.9020902,23.8924558 22.6887136,20.7153596 C21.4739096,17.5389853 20.2112842,14.489637 18.9015514,11.5658713 C17.5518484,14.489637 16.2706655,17.5389853 15.057289,20.7153596 C13.8431987,23.8924558 12.6376735,27.1749258 11.4435682,30.5663786 L26.3595345,30.5663786 L26.3595345,30.5663786 L26.3595345,30.5663786 Z" id="a-first" fill="#1D3657"></path>
                            <path d="M51.8547167,46.1747113 C48.5400575,46.0967635 46.1896757,45.3764677 44.802144,44.0116589 C43.4138985,42.6482934 42.7215601,40.5242148 42.7215601,37.6394231 L42.7215601,1.15983496 L48.0968182,0.224460905 L48.0968182,36.7625099 C48.0968182,37.6603535 48.174617,38.4001363 48.3280734,38.984745 C48.4829574,39.5686321 48.733484,40.0370409 49.0796531,40.3878061 C49.4265361,40.7378496 49.8897604,41.0012844 50.4678987,41.1766671 C51.0467507,41.3520497 51.7590741,41.4985627 52.6062964,41.6154845 L51.8547167,46.1747113" id="l-first" fill="#1D3657"></path>
                            <path d="M77.4662402,42.5501369 C77.0044433,42.8633717 76.1079722,43.2617717 74.7782543,43.7489457 C73.4485364,44.2361198 71.8968419,44.4800676 70.1238847,44.4800676 C68.3123849,44.4800676 66.6065203,44.1870415 65.0077182,43.6031544 C63.4082024,43.0178239 62.0106782,42.1120411 60.8158592,40.8843627 C59.6210402,39.6559625 58.6767478,38.1273188 57.9829819,36.2955446 C57.2899298,34.4637704 56.9423331,32.281231 56.9423331,29.7479263 C56.9423331,27.5264129 57.2692309,25.4896647 57.9251681,23.6384036 C58.5803914,21.7878641 59.5339626,20.1892117 60.7873092,18.8446115 C62.0392282,17.5000114 63.5709377,16.4477156 65.3831512,15.6877241 C67.194651,14.9277327 69.2374061,14.5473762 71.5114165,14.5473762 C74.0166821,14.5473762 76.2036149,14.7335849 78.0736422,15.1031153 C79.9429558,15.4740893 81.5132078,15.8147502 82.7851119,16.1258198 L82.7851119,43.2523891 C82.7851119,47.9292594 81.5910067,51.3192686 79.2013687,53.4238603 C76.8103031,55.5284518 73.1880173,56.580026 68.3316561,56.580026 C66.4430713,56.580026 64.6608353,56.4255738 62.9842344,56.1137824 C61.3076335,55.8005475 59.8522955,55.4317388 58.6196477,55.0030257 L59.6024827,50.2676946 C60.6809603,50.6949642 62.0013994,51.0760425 63.5623727,51.4073208 C65.1233459,51.7378774 66.7514117,51.9045991 68.4472839,51.9045991 C71.6463153,51.9045991 73.9488757,51.2615294 75.3563926,49.9746684 C76.7631956,48.6892509 77.4662402,46.6423983 77.4662402,43.8362762 L77.4662402,42.5501369 L77.4662402,42.5501369 L77.4662402,42.5501369 Z M75.2407649,19.546142 C74.3343012,19.4104551 73.1109323,19.3411681 71.569944,19.3411681 C68.6792529,19.3411681 66.4530638,20.2974726 64.8920906,22.2064729 C63.3311174,24.116195 62.5509877,26.6487779 62.5509877,29.8056654 C62.5509877,31.5602134 62.7715366,33.0607094 63.2154897,34.3078747 C63.658729,35.5557619 64.2561385,36.5871272 65.0077182,37.4063013 C65.7592979,38.2240318 66.6265053,38.8288493 67.6093403,39.2178668 C68.5921753,39.6083277 69.604274,39.8024756 70.6449228,39.8024756 C72.0702834,39.8024756 73.38073,39.5982233 74.5755491,39.1889972 C75.7696543,38.7790494 76.7146605,38.3027014 77.4084264,37.7570666 L77.4084264,19.9849596 C76.8681169,19.8290638 76.1465148,19.6832726 75.2407649,19.546142 L75.2407649,19.546142 Z" id="g" fill="#1D3657"></path>
                            <path d="M134.981716,46.1754331 C131.666342,46.0967635 129.315961,45.3771894 127.928429,44.0123805 C126.540897,42.6490151 125.847131,40.5242148 125.847131,37.6401448 L125.847131,1.1605567 L131.224531,0.225182647 L131.224531,36.7625099 C131.224531,37.6603535 131.300902,38.4001363 131.455072,38.984745 C131.609242,39.5693538 131.859769,40.0370409 132.207366,40.3878061 C132.553534,40.7385713 133.015332,41.0020062 133.594184,41.1773888 C134.172322,41.3527715 134.884645,41.4985627 135.733295,41.6154845 L134.981716,46.1754331" id="l-latest" fill="#1D3657"></path>
                            <path d="M144.404654,9.69584496 C143.441805,9.69584496 142.621705,9.37394923 141.948638,8.7316013 C141.273429,8.08780995 140.936539,7.22172278 140.936539,6.1297314 C140.936539,5.03846168 141.273429,4.17093109 141.948638,3.52858316 C142.621705,2.8847917 143.441805,2.56361773 144.404654,2.56361773 C145.368219,2.56361773 146.187604,2.8847917 146.862813,3.52858316 C147.53588,4.17093109 147.874198,5.03846168 147.874198,6.1297314 C147.874198,7.22172278 147.53588,8.08780995 146.862813,8.7316013 C146.187604,9.37394923 145.368219,9.69584496 144.404654,9.69584496 L144.404654,9.69584496 L144.404654,9.69584496 Z M141.745933,15.1911675 L147.122618,15.1911675 L147.122618,45.5908243 L141.745933,45.5908243 L141.745933,15.1911675 L141.745933,15.1911675 Z" id="i" fill="#1D3657"></path>
                            <path d="M166.084838,14.4311761 C168.243221,14.4311761 170.064,14.7148196 171.548601,15.2792197 C173.031776,15.8443416 174.226595,16.6433069 175.132344,17.6753939 C176.038095,18.7089245 176.684039,19.936603 177.069465,21.3591511 C177.454177,22.7816991 177.647603,24.3500384 177.647603,26.0648909 L177.647603,45.0653981 C177.185092,45.1433459 176.539148,45.2501634 175.711196,45.386572 C174.881818,45.5229808 173.947518,45.6492851 172.906869,45.7662069 C171.866221,45.8831287 170.738494,45.989946 169.525117,46.0873809 C168.310313,46.1840939 167.105502,46.2338939 165.911397,46.2338939 C164.214811,46.2338939 162.654552,46.0585113 161.228477,45.707746 C159.802403,45.3569808 158.569041,44.8012416 157.528393,44.0419718 C156.487744,43.2819805 155.67835,42.2787629 155.100212,41.0308757 C154.522074,39.7837104 154.233004,38.2832145 154.233004,36.5293881 C154.233004,34.8542313 154.569895,33.4114746 155.245104,32.2032831 C155.918171,30.9958134 156.833913,30.0214653 157.990903,29.2802392 C159.147179,28.5404565 160.496169,27.9940999 162.037871,27.6433346 C163.578859,27.2925694 165.197645,27.1171867 166.894232,27.1171867 C167.433114,27.1171867 167.992695,27.1460563 168.570833,27.2045172 C169.148971,27.2629781 169.698559,27.3423693 170.218169,27.4390824 C170.738494,27.5365172 171.191726,27.6238476 171.577865,27.7017955 C171.962577,27.7804651 172.232375,27.8389259 172.386545,27.8771781 L172.386545,26.3571953 C172.386545,25.4607951 172.290189,24.5744993 172.097476,23.6968645 C171.90405,22.8199513 171.557166,22.0411946 171.056827,21.3591511 C170.555774,20.6771074 169.871287,20.1314726 169.004079,19.7215247 C168.136872,19.3130203 167.009146,19.1080464 165.622328,19.1080464 C163.848657,19.1080464 162.29839,19.2350724 160.967958,19.4884029 C159.638953,19.7417335 158.646126,20.0051682 157.990903,20.277264 L157.354951,15.7757763 C158.048717,15.4647067 159.205707,15.1622979 160.823781,14.8699935 C162.442567,14.5769674 164.196253,14.4311761 166.084838,14.4311761 L166.084838,14.4311761 L166.084838,14.4311761 Z M166.547349,41.6739454 C167.819253,41.6739454 168.946979,41.6443541 169.929815,41.5858932 C170.912649,41.5274323 171.731322,41.4213366 172.386545,41.2647192 L172.386545,32.2032831 C172.000405,32.0091352 171.374446,31.8431352 170.507953,31.7067266 C169.640031,31.5703178 168.590104,31.5010309 167.356742,31.5010309 C166.547349,31.5010309 165.689421,31.5602134 164.784384,31.6771352 C163.878635,31.7940569 163.049256,32.0380048 162.29839,32.4075353 C161.546096,32.7785093 160.919423,33.2844485 160.419083,33.92824 C159.91803,34.5705878 159.667503,35.4186314 159.667503,36.4709272 C159.667503,38.4196231 160.28347,39.773606 161.517546,40.5335974 C162.750907,41.2943106 164.427509,41.6739454 166.547349,41.6739454 L166.547349,41.6739454 L166.547349,41.6739454 Z" id="a-latest" fill="#1D3657"></path>
                        </g>
                    </g>
                </g>
            </g>
        </g>
    </g>
</svg>